<?xml version="1.0" encoding="UTF-8"?>
<svg width="252px" height="40px" viewBox="0 0 252 40" version="1.1" xmlns="http://www.w3.org/2000/svg" xmlns:xlink="http://www.w3.org/1999/xlink">
    <!-- Generator: Sketch 63.1 (92452) - https://sketch.com -->
    <title>flowerrush-white-logo</title>
    <desc>Created with Sketch.</desc>
    <defs>
        <linearGradient x1="-0.000464264033%" y1="49.9991228%" x2="99.9980069%" y2="49.9991228%" id="linearGradient-1">
            <stop stop-color="#FDC800" offset="20.51%"></stop>
            <stop stop-color="#FF15FF" offset="50%"></stop>
            <stop stop-color="#00E2FF" offset="100%"></stop>
        </linearGradient>
    </defs>
    <g id="flowerrush-white-logo" stroke="none" stroke-width="1" fill="none" fill-rule="evenodd">
        <g id="flowerrush-full-logo">
            <g id="Group-3" fill-rule="nonzero">
                <path d="M80.5994443,19.4274798 C80.2433954,18.7618696 79.6243356,18.2635615 78.8997135,18.0620795 C74.823938,16.9233465 71.984493,17.9523438 70.1827784,19.2295957 C70.1291027,18.8662085 70.0825837,18.6359434 70.066481,18.5639856 C69.9466053,18.0045132 69.6657024,17.5187977 69.2810265,17.1464159 C70.0593243,16.9953044 70.7499517,16.5131867 71.1560979,15.8097987 C72.2349797,13.9406935 72.585661,11.7549737 72.1455201,9.65740233 C72.0793201,9.34258672 71.9952282,9.02597217 71.8932443,8.71835235 L70.6622814,4.98733769 C70.4296867,4.28035178 69.9358701,3.70648791 69.2756589,3.37368284 C68.6512315,3.05886723 67.9176635,2.99230622 67.2485063,3.19019032 C67.2127225,3.15421139 67.1769387,3.12183036 67.1393657,3.08765038 C65.6257107,1.73664169 63.662969,0.946904256 61.3101837,0.736427537 C60.531886,0.664469684 59.7571666,0.93071374 59.1828365,1.46320185 C58.9395066,1.68807014 56.7853215,3.75685841 56.2199374,6.8402524 C56.2181482,6.84924713 56.216359,6.8600408 56.2145698,6.86903554 C56.1519481,6.88882395 56.0893265,6.90861236 56.028494,6.92840076 C55.5650937,7.08311015 55.1607367,7.3529521 54.84405,7.70734452 L42.8206913,7.70734452 L54.1283739,9.67359285 C54.1373199,9.93444006 54.1838388,10.1970862 54.2679307,10.4525366 L55.4988937,14.1835513 C55.6008775,14.49297 55.7207533,14.796992 55.8531533,15.0866223 C56.0839589,15.5885283 56.3559158,16.0598523 56.6618674,16.4969962 C53.255249,15.2755117 49.4711116,15.8601692 46.5636773,18.1106511 L46.2147852,18.3517099 L29.1530666,1.19695779 C28.4839094,0.524151872 27.5320602,0.2417173 26.6070488,0.443199287 C25.6820375,0.642882329 24.9305775,1.2941009 24.5959989,2.18457932 C23.9053715,4.02490141 23.4151334,5.9353824 23.1431764,7.8620539 C22.9839385,8.97200378 22.894479,10.0873505 22.8730087,11.2008983 L0,11.2008983 L23.0966575,15.2179454 C23.1896954,15.9321271 23.3095711,16.6445098 23.4598631,17.3532947 C23.6817227,18.4038793 23.9697823,19.4580619 24.3168853,20.4852602 C24.8268045,21.9945762 25.4727022,23.4535216 26.2366864,24.8459061 L15.7001448,24.8459061 L27.4855413,26.894906 C28.1564876,27.8969191 28.893634,28.8557574 29.6916129,29.7588285 L23.2344251,34.2166175 C22.1090244,34.9937623 21.7136134,36.4599035 22.2951002,37.7029754 C22.8765871,38.9442484 24.2506852,39.5738796 25.5657401,39.1978998 C28.8632178,38.2516541 32.391501,38.0213889 35.7694923,38.5286918 L35.9144167,38.5520781 C35.9752492,38.5610728 36.0378709,38.5718665 36.1004925,38.5826602 C36.1076493,38.5844591 36.114806,38.5844591 36.1201736,38.5862581 C36.1452223,38.589856 36.1702709,38.5934539 36.1971088,38.5988507 C39.1582187,39.0521852 42.1390098,38.9010737 45.0571791,38.1509131 L45.0893845,38.1437173 C46.9161478,37.6705944 48.6731327,36.9690053 50.3048742,36.0641353 L50.3442364,36.042548 C50.4014905,36.0119659 50.4569554,35.9795849 50.5016852,35.9543996 C52.6505027,34.736513 54.5738823,33.1732286 56.2181482,31.3077213 C56.2342509,31.2897318 56.2503536,31.2699434 56.2664563,31.250155 C56.3916996,31.1080382 56.5133646,30.9659215 56.6332403,30.8184079 C57.6942302,29.6976643 59.2436689,29.1022131 60.7913186,29.2281393 C60.9612916,29.2425309 61.1366323,29.2659172 61.3137621,29.2982982 C61.4229027,29.3180866 61.5320433,29.3432719 61.6393947,29.3702561 C60.3243399,30.9623236 58.604928,32.3816922 56.5044186,33.6049757 C55.5883532,34.1392628 55.060542,35.1322811 55.1267421,36.1954584 C55.1947313,37.2586357 55.8442074,38.1760983 56.8211053,38.588057 L58.6156632,39.3454134 C58.9573985,39.4893291 59.3188149,39.5630859 59.6891773,39.5630859 C60.1829939,39.5630859 60.6696536,39.4299639 61.0954809,39.1781114 C64.3231802,37.2694294 66.7493222,34.702333 68.3255989,31.5289917 C68.9589722,31.7646536 69.5816105,32.0057124 70.188146,32.253967 C71.5980279,32.826032 73.2154559,32.1424324 73.7933644,30.7284606 C74.2585539,29.5879286 73.9132402,28.3088778 73.027591,27.5479235 C77.7546317,27.1539542 80.1664602,23.5614584 80.7998336,21.6096017 C81.0270608,20.8882242 80.9554931,20.0930899 80.5994443,19.4274798 Z M64.6845966,22.0575393 C64.2122504,21.6815595 63.7506393,21.3091776 63.3104985,20.9547852 C62.8989847,20.6219801 62.4946277,20.2963709 62.0992167,19.9815553 C62.6145035,20.0751005 63.1423146,20.123672 63.6826501,20.123672 C64.0154395,20.123672 64.3482289,20.1038836 64.6810182,20.0661057 C64.7203804,20.4690697 64.7579534,21.1670609 64.6845966,22.0575393 Z" id="Shape" fill="url(#linearGradient-1)"></path>
                <path d="M71.3811191,29.9039457 C70.3811811,29.4909192 69.3021113,28.9176669 68.0827625,28.1485831 C67.8201889,27.9830165 67.5324369,27.7960864 67.1853362,27.5646491 C67.3256152,27.0519266 67.4353206,26.5552266 67.5198478,26.085231 C68.1672896,22.4926126 67.5522199,19.5871849 67.5450261,19.5587003 C67.5342354,19.5106326 67.4874757,19.4803677 67.4389175,19.4910495 C67.3903594,19.5017312 67.3597858,19.5480186 67.368778,19.5960864 C67.3741734,19.6210104 67.8849331,22.1240933 66.976716,25.4051615 C66.8346385,25.9161037 66.6529951,26.464432 66.4191966,27.0376843 C64.780809,25.8876191 63.1478168,24.5933508 61.7036617,23.4468462 C60.6155997,22.5834072 59.5868865,21.7662557 58.676871,21.1057694 C58.3297703,20.854749 58.0312276,20.650016 57.768654,20.4773282 C57.5924059,20.3527082 57.4089641,20.2352092 57.2237237,20.1266118 C57.0744524,20.0393777 56.9359718,19.9628254 56.7974912,19.8951745 L56.7291501,19.8613491 C56.6985765,19.8453265 56.6698013,19.8310842 56.6410261,19.8168419 C56.6068555,19.799039 56.572685,19.7830165 56.5385144,19.7669939 L56.4899563,19.7438501 C53.73653,18.4834072 50.540685,18.8537069 48.1415532,20.7141063 L45.8880958,22.2451528 L27.1500493,3.69990746 C27.1284679,3.67854402 27.0978943,3.66964259 27.0673206,3.67498345 C27.036747,3.6821046 27.0133672,3.70168775 27.0025765,3.73017234 C26.376716,5.36803599 25.9360958,7.06998996 25.6879098,8.78796652 C25.6843129,8.81111024 25.6915067,8.83603425 25.7058943,8.85561741 L36.512778,22.6207933 C36.5343594,22.6474976 36.56853,22.6617399 36.6027005,22.6528384 C36.636871,22.6457173 36.6638478,22.6207933 36.6710416,22.5887481 L37.6763749,18.7326474 L46.64884,29.738379 L39.1349175,23.9417659 C39.1133362,23.923963 39.084561,23.9186222 39.0575842,23.9257433 C39.0306075,23.9328645 39.0090261,23.9524476 38.9982354,23.9773716 L37.6026385,27.2263947 L26.1231346,17.1624346 C26.0943594,17.1375106 26.0511966,17.1321697 26.0188245,17.1517529 C25.984654,17.171336 25.9684679,17.2087221 25.9756617,17.2478884 C26.1752896,18.1825388 26.4360648,19.1225301 26.752592,20.041158 C28.1391966,24.0752874 30.5796927,27.6750269 33.8133051,30.4558345 L24.6358168,36.6921784 C24.5998478,36.7171024 24.5872586,36.7633899 24.6052431,36.8025562 C24.6196307,36.8346013 24.6520028,36.8541845 24.6861734,36.8541845 C24.6951656,36.8541845 24.7023594,36.8524042 24.7113517,36.8506239 C28.3981734,35.8091563 32.3439718,35.5563556 36.1135222,36.1171458 C36.120716,36.1189261 36.1279098,36.1207064 36.1422974,36.1224867 L36.2681889,36.1420699 C36.3437237,36.1545319 36.4174602,36.1652136 36.5073827,36.1794559 C36.512778,36.1812362 36.5163749,36.1812362 36.5217703,36.1830165 C39.1511036,36.5818006 41.8002199,36.4482792 44.3917858,35.7895731 C44.3953827,35.7895731 44.3971811,35.7877928 44.400778,35.7877928 C46.0175842,35.3747663 47.5714447,34.7659083 49.0191966,33.9736808 L49.060561,33.9523174 C49.1001268,33.9309539 49.1396927,33.9095905 49.1792586,33.8864468 C51.0820183,32.825396 52.7869486,31.4634767 54.2418943,29.8380751 L54.1753517,29.7793256 L54.2562819,29.8202722 C54.3875687,29.6742887 54.5170571,29.5247446 54.6483439,29.3662991 C54.6519408,29.3609583 54.6573362,29.3556174 54.66453,29.3484963 C56.2903284,27.6162774 58.6858633,26.6994298 61.0724059,26.8899205 C61.3385765,26.9112839 61.6065455,26.9468897 61.872716,26.9949574 C62.2935532,27.0715097 62.7071966,27.1836678 63.0992586,27.327871 C63.104654,27.3296513 63.1100493,27.3314316 63.1154447,27.3314316 C63.1172431,27.3314316 63.1172431,27.3314316 63.1190416,27.3314316 C63.1226385,27.3332118 63.1244369,27.3332118 63.1280338,27.3332118 C64.0955997,27.6020351 65.0307935,27.8797598 65.9156307,28.1557043 C64.6153517,30.7478015 62.2378013,33.7048575 57.9035377,36.1919179 C57.8747625,36.2079405 57.856778,36.2417659 57.8585765,36.2738111 C57.8603749,36.3058562 57.8819563,36.3379014 57.9143284,36.3503634 L59.7181734,37.099864 C59.7289641,37.1052049 59.7415532,37.1069852 59.7523439,37.1069852 C59.76853,37.1069852 59.784716,37.1034246 59.7973051,37.0945232 C63.9121579,34.6982574 65.9336152,31.3887047 66.9101734,28.4743755 C67.1529641,28.5544884 67.3957548,28.6346013 67.6349486,28.7147142 C68.8974602,29.1402027 70.136592,29.5941758 71.3145765,30.067732 C71.3595377,30.0855349 71.4134912,30.0641715 71.4314757,30.0196643 C71.4494602,29.9751571 71.4260803,29.9235288 71.3811191,29.9039457 Z M56.3137082,21.7537937 C57.196747,21.7537937 57.9161268,22.464128 57.9161268,23.3364685 C57.9161268,24.2088089 57.196747,24.9191432 56.3137082,24.9191432 C55.4324679,24.9191432 54.7148832,24.2088089 54.7148832,23.3364685 C54.7130881,22.464128 55.4306695,21.7537937 56.3137082,21.7537937 Z" id="Shape" fill="#FFFFFF"></path>
                <path d="M58.0995687,13.8243973 C58.1697082,14.0326908 58.2524369,14.239204 58.3441579,14.4385961 C59.3458943,16.5909626 61.4698633,17.8709887 63.7736772,17.8709887 C64.3797548,17.8709887 64.9984214,17.7819743 65.6116927,17.5968245 C66.1458323,17.4365987 66.5828555,17.0769808 66.8400338,16.5856217 C67.0972121,16.0942627 67.1421734,15.5352527 66.9677237,15.0100681 C66.9371501,14.9192735 66.9065765,14.8302592 66.8724059,14.7412448 C65.3742974,10.7534029 61.0040648,8.67758875 56.9215842,10.0181445 C56.8748245,10.0341671 56.8496462,10.0840151 56.8640338,10.1303026 L58.0995687,13.8243973 Z" id="Path" fill="#FFFFFF"></path>
                <path d="M64.2934292,9.03898692 C64.2772431,9.05857008 64.2718478,9.08527438 64.2772431,9.11019839 C64.2826385,9.1351224 64.2970261,9.15648584 64.3204059,9.16894785 C66.0343284,10.1570069 67.3831656,11.611501 68.2230416,13.375765 C68.3884989,13.7229209 68.5359718,14.0860994 68.6582664,14.456399 C68.7050261,14.5952613 68.744592,14.7430251 68.7769641,14.9068115 C68.7841579,14.9424172 68.8129331,14.9709018 68.8507005,14.9762427 C68.8560958,14.9762427 68.8596927,14.978023 68.8650881,14.978023 C68.8974602,14.978023 68.9262354,14.9620004 68.9424214,14.9335158 C69.6905765,13.6570503 69.9351656,12.1651702 69.6294292,10.7356 C69.5844679,10.5219656 69.5251191,10.306551 69.4549796,10.0964772 L68.2176462,6.40416278 C68.2104524,6.38101906 68.1942664,6.36321619 68.172685,6.35253447 C68.1511036,6.34185275 68.1259253,6.34007247 68.1043439,6.34719361 C66.584654,6.84745414 65.264592,7.77854402 64.2934292,9.03898692 Z" id="Path" fill="#FFFFFF"></path>
                <path d="M59.0095842,7.98505727 C59.8782354,7.9405501 61.2216772,7.9939587 62.7000028,8.50490095 C62.7089951,8.50846152 62.7197858,8.51024181 62.7305765,8.51024181 C62.7611501,8.51024181 62.7917237,8.49421923 62.8079098,8.46573465 C63.4157858,7.43494871 64.300623,6.54480542 65.4390416,5.82200907 C65.4624214,5.80776678 65.4786075,5.78106248 65.4804059,5.75435818 C65.4822044,5.72587359 65.4714137,5.6991693 65.4498323,5.68136643 C64.3689641,4.73247368 62.9194137,4.17346369 61.1389486,4.01679847 C61.1137703,4.01679847 61.088592,4.02391962 61.0706075,4.0399422 C61.052623,4.05596478 59.3333051,5.64754098 58.9178633,7.88180065 C58.9124679,7.90850494 58.9214602,7.93698953 58.9394447,7.95657268 C58.9556307,7.97615583 58.980809,7.98683755 59.0095842,7.98505727 Z" id="Path" fill="#FFFFFF"></path>
                <path d="M78.3950726,21.1164511 C78.3842819,21.0950877 78.3627005,21.0790651 78.3393206,21.0719439 C71.6203129,19.2240065 69.5197237,24.6912666 69.4999408,24.7464554 C69.4909486,24.7695992 69.492747,24.7963035 69.5053362,24.8176669 C69.5161268,24.8390303 69.5377082,24.8568332 69.5610881,24.8621741 C70.5628245,25.1292171 71.4602509,25.2431554 72.260561,25.2431554 C77.0066695,25.2431554 78.3860803,21.2321697 78.4004679,21.184102 C78.4076617,21.1627386 78.4058633,21.1378145 78.3950726,21.1164511 Z" id="Path" fill="#FFFFFF"></path>
            </g>
            <g id="Group" transform="translate(87.441860, 11.162791)" fill="#FFFFFF" fill-rule="nonzero">
                <g id="Group-2">
                    <polygon id="Path" points="13.6572613 1.64579606 13.6572613 1.64820618 0 1.64820618 13.7466868 5.68515342 13.9578303 15.0147193 13.6572613 20.5724508 19.718323 20.5724508 19.4748869 14.4290606 19.4748869 14.0506722 21.2261363 14.0506722 25.1136616 14.1374364 25.4763317 9.86670773 25.1459541 9.45698771 21.6484234 9.54375195 19.596605 9.54375195 19.6860305 6.15030615 21.7974659 6.15030615 26.6214749 6.32624475 27.0139535 2.05551608 26.6835759 1.64579606"></polygon>
                    <polygon id="Path" points="28.7089709 0.381463118 28.9137081 15.0050207 28.6511628 20.5724508 34.3524913 20.5724508 34.11885 14.4183401 34.3813953 0"></polygon>
                    <path d="M43.2297452,6.58318426 C40.85618,6.58318426 39.059506,7.24013574 37.8446121,8.55403871 C36.6272738,9.86794169 36.0186047,11.8092702 36.0186047,14.3780244 C36.0186047,16.6884268 36.5832736,18.4353764 37.7101671,19.6188733 C38.8370606,20.8048306 40.5090674,21.3953488 42.7237432,21.3953488 C45.0973084,21.3953488 46.8939824,20.7433183 48.1088763,19.4392573 C49.3262146,18.1351963 49.9348837,16.2086307 49.9348837,13.6595606 C49.9348837,11.3294742 49.3702147,9.56776161 48.2433213,8.37196227 C47.1164278,7.18108392 45.4444209,6.58318426 43.2297452,6.58318426 Z M44.4006389,16.5752441 C44.3321942,16.9836859 44.2026381,17.2617215 44.0144151,17.4118116 C43.8261921,17.5619016 43.535302,17.6357164 43.1393004,17.6357164 C42.6455206,17.6357164 42.2788524,17.5225337 42.0417404,17.2912474 C41.8046283,17.0624216 41.6408498,16.6539799 41.5528495,16.0659222 C41.4648491,15.4778645 41.4184045,14.5773242 41.4184045,13.361841 C41.4184045,12.5449575 41.4526268,11.9396763 41.5210716,11.5410766 C41.5895163,11.1424768 41.7239613,10.8693621 41.9219621,10.7192721 C42.1199629,10.569182 42.4157419,10.4953673 42.8117435,10.4953673 C43.2859677,10.4953673 43.642858,10.6110104 43.8799701,10.8398362 C44.1170822,11.068662 44.2808606,11.4771038 44.368861,12.0651614 C44.4568613,12.6532191 44.503306,13.5439174 44.503306,14.7372563 C44.503306,15.5541397 44.4690836,16.1668024 44.4006389,16.5752441 Z" id="Shape"></path>
                    <polygon id="Path" points="67.1866368 6.70181944 66.6421338 9.52243133 65.5806027 14.931227 65.2758809 14.931227 64.3367381 9.20042156 64.0644866 6.70181944 58.3646892 6.70181944 57.8476611 9.52243133 56.6962122 14.9602805 56.393988 14.9602805 55.5747358 9.20042156 55.2725117 6.58318426 49.9348837 6.78897998 53.3617558 20.5724508 59.1514711 20.5724508 60.6675872 13.6964527 61.0322543 13.6964527 62.3360643 20.5724508 67.8835007 20.5724508 72.0372093 6.70181944"></polygon>
                    <path d="M79.5926248,6.58318426 C77.2463634,6.58318426 75.4016122,7.2414479 74.055851,8.55797517 C72.7100899,9.87450245 72.0372093,11.6816457 72.0372093,13.9744741 C72.0372093,16.2894912 72.745372,18.1040306 74.1642175,19.4205579 C75.5805429,20.7370852 77.5538219,21.3953488 80.0840545,21.3953488 C81.4701381,21.3953488 82.9696285,21.1857893 84.5800056,20.7666701 L85.4973409,16.8170882 L85.068915,16.518774 C83.1510794,17.0167862 81.6944316,17.2682577 80.6939313,17.2682577 C79.7967572,17.2682577 79.0936348,17.1030754 78.5820439,16.7751763 C78.0729732,16.4472772 77.7251923,15.9320072 77.5412212,15.234297 L85.1268785,15.1751273 L85.7695173,14.4256436 C85.8930047,13.7279334 85.9534884,13.0795314 85.9534884,12.4804375 C85.9534884,10.6239861 85.3965348,9.17925771 84.2851478,8.14132141 C83.1762809,7.10338511 81.6112666,6.58318426 79.5926248,6.58318426 Z M80.8476605,12.3004628 L77.4832577,12.4212678 C77.7277124,11.0036588 78.4106736,10.296087 79.5321412,10.296087 C80.4494765,10.296087 80.9081442,10.8236841 80.9081442,11.8813437 L80.8476605,12.3004628 Z" id="Shape"></path>
                    <path d="M93.3552575,9.17973217 L93.0911394,9.17973217 L93.0911394,6.58318426 L87.6488521,6.96731775 L87.8548158,14.9660468 L87.5906977,20.5724508 L93.3261803,20.5724508 L93.0911394,14.3752592 L93.0911394,12.8995059 C93.5030667,12.5445471 93.9489175,12.2698187 94.4286917,12.0728895 C94.9084659,11.8759603 95.3640091,11.7787113 95.7953213,11.7787113 C96.2460183,11.7787113 96.5997912,11.8565105 96.8542169,12.0145401 L97.4139535,11.8370607 L97.4139535,6.67313957 C97.2176822,6.63423997 96.9923337,6.61479018 96.737908,6.61479018 C95.3252395,6.61235895 94.1960739,7.46815002 93.3552575,9.17973217 Z" id="Path"></path>
                    <path d="M118.391008,10.8351323 C118.964489,9.8365594 119.249988,8.76894937 119.249988,7.6323022 C119.249988,5.69679671 118.656646,4.21496385 117.472446,3.18680362 C116.285763,2.15864338 114.600078,1.64579606 112.410425,1.64579606 L103.157775,1.67538341 L103.157775,1.68031463 L89.227907,1.68031463 L103.249631,5.89158007 L103.45817,15.3521336 L103.157775,21.0378351 L109.215319,21.0378351 L109.004298,15.260906 L111.022651,15.260906 C111.385111,16.1583888 111.807153,17.1224431 112.288777,18.1481377 C112.770402,19.176298 113.09314,19.8494101 113.252026,20.167474 L113.614486,20.9170201 L114.187966,21.3953488 C116.176529,21.2745338 118.194883,20.9071576 120.24551,20.288289 L120.334884,19.6299706 C118.887528,17.71419 117.442655,15.6406102 115.995299,13.4043001 C117.020613,12.6917382 117.817527,11.8337052 118.391008,10.8351323 Z M112.499798,9.96723684 C112.239125,10.4061158 111.827014,10.7562327 111.263464,11.015122 L109.06388,10.894307 L109.185528,5.89651129 L110.270424,5.80774926 C111.193951,5.84719905 111.86177,6.0617073 112.273882,6.45127401 C112.685993,6.84084072 112.892049,7.43505323 112.892049,8.23144593 C112.892049,8.94893905 112.760471,9.52835789 112.499798,9.96723684 Z" id="Shape"></path>
                    <path d="M135.004429,16.6126343 C134.862099,16.6126343 134.757224,16.5650224 134.687308,16.4674179 C134.617392,16.3721941 134.582433,16.2174554 134.582433,16.0055824 L134.914536,6.58556485 L129.306241,6.96169899 L129.306241,15.5723139 C129.084007,15.7270527 128.876755,15.8365601 128.684485,15.9055973 C128.492215,15.9746346 128.264986,16.0055824 128.0028,16.0055824 C127.578307,16.0055824 127.263683,15.8865526 127.063922,15.6437318 C126.861664,15.4032916 126.761783,14.9938292 126.761783,14.4153444 L126.761783,6.58318426 L121.153488,6.95931839 L121.33577,13.6630761 L121.245878,16.6388208 C121.245878,17.8719695 121.655388,18.817066 122.474409,19.4717298 C123.29343,20.1263937 124.449548,20.4549159 125.94526,20.4549159 C126.611962,20.2620876 127.218737,19.9787967 127.763086,19.6026626 C128.309932,19.2265285 128.86427,18.7408869 129.431092,18.1433574 L129.795656,18.1433574 C130.320029,19.5312447 131.169014,20.3406473 132.342611,20.5715651 C133.393854,20.5906098 134.402648,20.3025577 135.373987,19.7050282 L135.888372,16.8149849 L135.523808,16.5269328 C135.316556,16.5840671 135.144262,16.6126343 135.004429,16.6126343 Z" id="Path"></path>
                    <path d="M145.240112,12.9541402 C144.67762,12.6559253 143.966451,12.3453874 143.104129,12.0274557 C142.422696,11.7883908 141.932064,11.578901 141.629755,11.3989862 C141.327447,11.2190714 141.178771,10.9997232 141.178771,10.7409416 C141.178771,10.381112 141.438954,10.2036618 141.961799,10.2036618 C142.363225,10.2036618 142.913327,10.3293557 143.617062,10.5782789 C144.318319,10.8272021 145.009663,11.1623859 145.693574,11.5813656 L146.355184,11.3718757 L147.108477,7.33241854 C145.604369,6.83457208 144.120083,6.58318426 142.655622,6.58318426 C141.332403,6.58318426 140.195029,6.80253245 139.241023,7.24122884 C138.289494,7.67992523 137.560981,8.27881974 137.060437,9.03544778 C136.559893,9.79454041 136.307144,10.6423581 136.307144,11.578901 C136.307144,12.4760105 136.517768,13.2104572 136.939018,13.7773121 C137.360268,14.3466316 137.855855,14.7803988 138.428259,15.0786138 C139.000663,15.3768287 139.716787,15.6873666 140.579109,16.0052983 C141.260543,16.2443632 141.751174,16.453853 142.053483,16.6337678 C142.353313,16.8136826 142.504468,17.0330308 142.504468,17.2918124 C142.504468,17.6713587 142.224461,17.8611319 141.661969,17.8611319 C141.079653,17.8611319 140.353617,17.6910754 139.481383,17.3534271 C138.609148,17.0133141 137.801341,16.554901 137.060437,15.9781878 L136.579717,16.3380174 L135.888372,20.6165395 C137.613017,21.1341027 139.298015,21.3953488 140.940888,21.3953488 C142.40535,21.3953488 143.617062,21.1612131 144.58098,20.6929417 C145.54242,20.2246703 146.246155,19.6159174 146.687228,18.8666831 C147.128301,18.1199134 147.348837,17.3065999 147.348837,16.4292071 C147.348837,15.5518144 147.138212,14.8272259 146.716963,14.2603711 C146.293235,13.6861224 145.802604,13.2523552 145.240112,12.9541402 Z" id="Path"></path>
                    <path d="M163.72093,20.5724508 L163.511829,14.441365 L163.63237,10.4702301 C163.67173,9.22428959 163.297808,8.2717945 162.513065,7.60793428 C161.725862,6.94647936 160.586877,6.61454925 159.093651,6.61454925 C157.819365,7.02344866 156.65578,7.74263056 155.600436,8.77450024 L155.450375,8.77450024 L155.600436,0.0745640097 L155.600436,0.0745640097 L155.602896,0 L135.888372,0 L149.861231,4.2116639 L150.016212,15.0234453 L149.748071,20.5700455 L155.570916,20.5700455 L155.332295,14.4389597 L155.391335,11.4900734 C155.868577,11.2182755 156.335979,11.081174 156.796001,11.081174 C157.730805,11.081174 158.200667,11.6752807 158.200667,12.861089 L157.903006,20.5700455 L163.72093,20.5700455 L163.72093,20.5724508 Z" id="Path"></path>
                </g>
            </g>
            <g id="Group" transform="translate(25.116279, 3.720930)"></g>
        </g>
    </g>
</svg>